<svg width="48" height="48" viewBox="0 0 48 48" fill="none" xmlns="http://www.w3.org/2000/svg">
<path d="M47.8654 23.9335C47.8654 10.7156 37.1502 0 23.9323 0C10.7204 0 0.00937348 10.7066 0 23.9167V42.4373C0.00711011 45.4367 2.43977 47.8649 5.44108 47.8649H23.9421C37.1555 47.8597 47.8654 37.148 47.8654 23.9335Z" fill="#294172"/>
<path fill-rule="evenodd" clip-rule="evenodd" d="M13.7981 28.1037C10.5003 28.1037 7.82243 30.7815 7.82243 34.0794C7.82243 37.3772 10.5003 40.0551 13.7981 40.0551C17.096 40.0551 19.7738 37.3772 19.7738 34.0794V28.1037H13.7981ZM2.5712 34.0794C2.5712 27.8814 7.60011 22.8524 13.7981 22.8524H25.025V34.0794C25.025 40.2774 19.9961 45.3063 13.7981 45.3063C7.60011 45.3063 2.5712 40.2774 2.5712 34.0794Z" fill="#3C6EB4"/>
<path fill-rule="evenodd" clip-rule="evenodd" d="M30.9593 22.8692C34.2571 22.8692 36.935 20.1913 36.935 16.8935C36.935 13.5957 34.2571 10.9178 30.9593 10.9178C27.6614 10.9178 24.9836 13.5957 24.9836 16.8935V22.8692H30.9593ZM42.1862 16.8935C42.1862 23.0915 37.1573 28.1204 30.9593 28.1204H19.7323V16.8935C19.7323 10.6955 24.7613 5.66657 30.9593 5.66657C37.1573 5.66657 42.1862 10.6955 42.1862 16.8935Z" fill="#3C6EB4"/>
<path d="M25.0307 22.859V34.0673C25.0307 40.2703 20.0014 45.2997 13.7982 45.2997C12.8571 45.2997 12.1881 45.1935 11.3169 44.9657C10.0466 44.6333 9.00849 43.5918 9.00806 42.3804C9.00806 40.9161 10.071 39.8509 11.6598 39.8509C12.416 39.8509 12.6904 39.9961 13.7982 39.9961C17.0686 39.9961 19.7214 37.3471 19.7271 34.0767V28.925C19.7271 28.4634 19.352 28.0893 18.8896 28.0893L14.9947 28.0886C13.5436 28.0886 12.3711 26.9311 12.3711 25.476C12.3703 24.0118 13.5556 22.859 15.0224 22.859" fill="white"/>
<path d="M19.7267 28.1138V16.9055C19.7267 10.7026 24.756 5.67316 30.9592 5.67316C31.9003 5.67316 32.5693 5.77941 33.4405 6.00713C34.7108 6.33956 35.7489 7.38107 35.7493 8.5925C35.7493 10.0568 34.6864 11.1219 33.0976 11.1219C32.3414 11.1219 32.067 10.9767 30.9592 10.9767C27.6888 10.9767 25.036 13.6257 25.0303 16.8961V22.0479C25.0303 22.5095 25.4054 22.8835 25.8678 22.8835L29.7627 22.8843C31.2138 22.8843 32.3863 24.0418 32.3863 25.4969C32.3871 26.9611 31.2018 28.1138 29.735 28.1138" fill="white"/>
<path d="M43.7358 43.7229L43.7358 42.7285L43.2812 43.7707L42.8387 42.7285L42.8388 43.7229H42.5838V42.1525H42.8512L43.2887 43.1558L43.7197 42.1525H43.9903V43.7229H43.7358ZM41.8782 42.4156V43.7229H41.6117V42.4156H41.165V42.1525H42.3244V42.4156" fill="#3C6EB4"/>
</svg>
