<svg width="44.4" height="30" viewBox="0 0 37 25" fill="none" xmlns="http://www.w3.org/2000/svg">
<g clip-path="url(#clip0_157400_166180)">
<path d="M19.0917 17.5478H17.3807C15.1136 17.5478 12.9393 16.6472 11.3362 15.0441C9.73313 13.441 8.83252 11.2667 8.83252 8.99962C8.83252 6.7325 9.73313 4.55824 11.3362 2.95515C12.9393 1.35206 15.1136 0.451447 17.3807 0.451447L19.0917 0.451447C19.4694 0.451447 19.8317 0.601508 20.0988 0.86862C20.3659 1.13573 20.516 1.49801 20.516 1.87577C20.516 2.25352 20.3659 2.6158 20.0988 2.88291C19.8317 3.15002 19.4694 3.30009 19.0917 3.30009H17.3807C15.8691 3.30009 14.4194 3.90057 13.3505 4.96944C12.2816 6.03831 11.6812 7.48801 11.6812 8.99962C11.6812 10.5112 12.2816 11.9609 13.3505 13.0298C14.4194 14.0987 15.8691 14.6992 17.3807 14.6992H19.0917C19.4694 14.6992 19.8317 14.8492 20.0988 15.1163C20.3659 15.3834 20.516 15.7457 20.516 16.1235C20.516 16.5012 20.3659 16.8635 20.0988 17.1306C19.8317 17.3977 19.4694 17.5478 19.0917 17.5478Z" fill="white"/>
<path d="M8.95448 7.57529H8.54817C6.28106 7.57529 4.1068 8.4759 2.5037 10.079C0.900609 11.6821 0 13.8563 0 16.1235C0 18.3906 0.900609 20.5648 2.5037 22.1679C4.1068 23.771 6.28106 24.6716 8.54817 24.6716H10.2569C10.6347 24.6716 10.9969 24.5216 11.2641 24.2545C11.5312 23.9874 11.6812 23.6251 11.6812 23.2473C11.6812 22.8696 11.5312 22.5073 11.2641 22.2402C10.9969 21.9731 10.6347 21.823 10.2569 21.823H8.54817C7.03656 21.823 5.58686 21.2225 4.51799 20.1536C3.44912 19.0848 2.84864 17.6351 2.84864 16.1235C2.84864 14.6119 3.44912 13.1622 4.51799 12.0933C5.58686 11.0244 7.03656 10.4239 8.54817 10.4239H8.95448C8.79197 9.48133 8.79197 8.51788 8.95448 7.57529Z" fill="#F9A51C"/>
<path d="M27.9244 24.6716H19.0918C18.714 24.6716 18.3518 24.5216 18.0847 24.2545C17.8175 23.9874 17.6675 23.6251 17.6675 23.2473C17.6675 22.8696 17.8175 22.5073 18.0847 22.2402C18.3518 21.9731 18.714 21.823 19.0918 21.823H27.9244C29.436 21.823 30.8857 21.2225 31.9546 20.1536C33.0234 19.0848 33.6239 17.6351 33.6239 16.1235C33.6239 14.6119 33.0234 13.1622 31.9546 12.0933C30.8857 11.0244 29.436 10.4239 27.9244 10.4239H26.2157C26.0285 10.4242 25.8432 10.3876 25.6702 10.3161C25.4973 10.2446 25.3402 10.1397 25.2078 10.0074C25.0755 9.8751 24.9706 9.71797 24.8992 9.54503C24.8277 9.37209 24.791 9.18674 24.7913 8.99961C24.7975 7.76722 24.4013 6.56649 23.6627 5.57989C23.3989 5.22706 23.096 4.90523 22.7598 4.62056C22.4857 4.37364 22.3179 4.03011 22.2916 3.66209C22.2654 3.29408 22.3827 2.93021 22.619 2.64687C22.8553 2.36353 23.1922 2.18276 23.559 2.14252C23.9257 2.10228 24.2938 2.20569 24.5859 2.43104C25.0941 2.85708 25.5523 3.33946 25.9516 3.8689C26.7734 4.95805 27.3201 6.22955 27.5452 7.57529H27.947C30.2141 7.57529 32.3883 8.4759 33.9914 10.079C35.5945 11.6821 36.4951 13.8564 36.4951 16.1235C36.4951 18.3906 35.5945 20.5648 33.9914 22.1679C32.3883 23.771 30.2141 24.6716 27.947 24.6716" fill="white"/>
<path d="M11.6834 8.99961C11.6828 8.62165 11.5322 8.25937 11.2648 7.99232C10.9973 7.72528 10.6348 7.57529 10.2568 7.57529H8.9544C8.79189 8.51788 8.79189 9.48133 8.9544 10.4239H10.2568C10.4441 10.4242 10.6295 10.3876 10.8026 10.3162C10.9757 10.2447 11.1329 10.1398 11.2654 10.0076C11.3979 9.87526 11.503 9.71815 11.5748 9.54519C11.6465 9.37224 11.6834 9.18684 11.6834 8.99961Z" fill="#CA5798"/>
</g>
<defs>
<clipPath id="clip0_157400_166180">
<rect width="36.4725" height="24.2202" fill="white" transform="translate(0 0.451447)"/>
</clipPath>
</defs>
</svg>

