<svg width="450" height="88" viewBox="0 0 450 88" fill="none" xmlns="http://www.w3.org/2000/svg">
<path d="M66.23 62.3213H60.2998C52.4368 62.316 44.8973 59.1909 39.3364 53.6318C33.7755 48.0728 30.6478 40.5343 30.6399 32.6714C30.6478 24.8075 33.7753 17.2681 39.3359 11.7075C44.8965 6.14691 52.4359 3.01966 60.2998 3.01172H66.23C67.5401 3.01172 68.7965 3.53207 69.7229 4.4585C70.6493 5.38493 71.1699 6.64149 71.1699 7.95166C71.1569 9.25873 70.6326 10.5084 69.7092 11.4336C68.7859 12.3588 67.537 12.8857 66.23 12.9014H60.2998C55.0581 12.9067 50.0326 14.9913 46.3262 18.6978C42.6197 22.4042 40.5351 27.4297 40.5298 32.6714C40.5351 37.9131 42.6197 42.9386 46.3262 46.645C50.0326 50.3515 55.0581 52.4361 60.2998 52.4414H66.23C67.5401 52.4414 68.7965 52.9618 69.7229 53.8882C70.6493 54.8146 71.1699 56.0712 71.1699 57.3813C71.1699 58.6915 70.6493 59.9481 69.7229 60.8745C68.7965 61.8009 67.5401 62.3213 66.23 62.3213Z" fill="#4558A6"/>
<path d="M31.0598 27.7217H29.6499C21.7878 27.7323 14.2508 30.8606 8.69238 36.4209C3.13394 41.9812 0.00793712 49.5192 0 57.3813C0.00793712 65.2435 3.13394 72.7815 8.69238 78.3418C14.2508 83.9021 21.7878 87.0309 29.6499 87.0415H35.5798C36.8973 87.0416 38.1616 86.5216 39.0979 85.5947C40.0342 84.6678 40.5667 83.4087 40.5798 82.0913C40.564 80.7757 40.0305 79.5195 39.0945 78.5947C38.1585 77.67 36.8956 77.1513 35.5798 77.1514H29.6499C24.4082 77.1461 19.3827 75.0614 15.6763 71.355C11.9698 67.6485 9.88518 62.6231 9.87988 57.3813C9.88518 52.1396 11.9698 47.1142 15.6763 43.4077C19.3827 39.7013 24.4082 37.6166 29.6499 37.6113H31.0598C30.7827 35.9758 30.6422 34.3204 30.6399 32.6616C30.6427 31.0062 30.7831 29.3539 31.0598 27.7217Z" fill="#F9A51C"/>
<path d="M96.8699 87.0414H66.23C64.9198 87.0414 63.6633 86.521 62.7368 85.5946C61.8104 84.6682 61.2898 83.4116 61.2898 82.1014C61.2885 81.4519 61.4154 80.8084 61.6631 80.2079C61.9108 79.6074 62.2743 79.0617 62.7332 78.6019C63.192 78.1421 63.7372 77.7771 64.3372 77.5282C64.9372 77.2793 65.5804 77.1512 66.23 77.1512H96.8699C102.113 77.146 107.139 75.062 110.847 71.3558C114.555 67.6497 116.642 62.6238 116.65 57.3812C116.642 52.1386 114.555 47.1133 110.847 43.4071C107.139 39.7009 102.113 37.6165 96.8699 37.6112H90.94C89.6298 37.6112 88.3732 37.0909 87.4468 36.1644C86.5204 35.238 86 33.9814 86 32.6713C86.0116 28.3899 84.6244 24.2223 82.0498 20.8016C81.1221 19.5756 80.0588 18.4584 78.8799 17.4716C78.3755 17.0556 77.9586 16.5434 77.6536 15.9652C77.3485 15.387 77.1614 14.754 77.1028 14.1029C77.0442 13.4518 77.1153 12.7956 77.3123 12.1722C77.5092 11.5488 77.828 10.9709 78.25 10.4716C78.6659 9.96718 79.1777 9.55005 79.7559 9.24499C80.3341 8.93993 80.9673 8.75281 81.6184 8.69421C82.2695 8.63561 82.9257 8.70677 83.5491 8.90368C84.1725 9.1006 84.7507 9.41919 85.25 9.84118C87.0201 11.3168 88.6109 12.9949 89.99 14.8412C92.8394 18.6178 94.7361 23.0257 95.5198 27.6913H96.9099C104.774 27.6992 112.313 30.827 117.874 36.3876C123.434 41.9482 126.562 49.4876 126.57 57.3514C126.562 65.2153 123.434 72.7547 117.874 78.3153C112.313 83.8759 104.774 87.0037 96.9099 87.0116" fill="#4558A6"/>
<path d="M40.5298 32.6714C40.5166 31.354 39.9841 30.0954 39.0479 29.1685C38.1116 28.2416 36.8472 27.7216 35.5298 27.7217H31.0098C30.7326 29.3572 30.5922 31.0126 30.5898 32.6714C30.5926 34.3269 30.733 35.9792 31.0098 37.6113H35.5298C36.8455 37.6114 38.1085 37.0932 39.0444 36.1685C39.9804 35.2437 40.514 33.987 40.5298 32.6714Z" fill="#CA5798"/>
<path d="M173.49 6.89138L169.92 10.4514C168.633 8.76142 166.967 7.39672 165.056 6.46755C163.146 5.53837 161.044 5.07053 158.92 5.10134C157.175 5.08803 155.445 5.4221 153.83 6.08376C152.215 6.74542 150.748 7.72138 149.514 8.95534C148.28 10.1893 147.304 11.6565 146.642 13.2713C145.98 14.886 145.647 16.6161 145.66 18.3611C145.648 20.1053 145.983 21.8349 146.645 23.4485C147.307 25.0621 148.284 26.5276 149.518 27.7605C150.751 28.9934 152.218 29.9691 153.832 30.6301C155.446 31.2912 157.176 31.6244 158.92 31.6111C161.093 31.5962 163.234 31.0827 165.177 30.1101C167.121 29.1375 168.815 27.7318 170.13 26.0012L173.7 29.5711C171.927 31.7904 169.678 33.584 167.121 34.8196C164.563 36.0552 161.761 36.7016 158.92 36.7112C148.21 36.7112 140.05 28.5511 140.05 18.3611C140.05 8.1711 148.21 0.00123863 158.92 0.00123863C161.712 -0.0311657 164.475 0.572631 167 1.76638C169.524 2.96012 171.743 4.71263 173.49 6.89138Z" fill="#4558A6"/>
<path d="M188.01 11.2217C191.37 11.2856 194.574 12.6477 196.951 15.0229C199.328 17.3982 200.693 20.6017 200.76 23.9614C200.696 27.3229 199.332 30.5289 196.955 32.9062C194.577 35.2836 191.371 36.6474 188.01 36.7114C184.65 36.6448 181.447 35.2799 179.072 32.9028C176.696 30.5258 175.334 27.3212 175.27 23.9614C175.336 20.6034 176.7 17.4013 179.075 15.0264C181.45 12.6514 184.652 11.2882 188.01 11.2217ZM188.01 15.8115C185.925 15.905 183.959 16.8094 182.532 18.332C181.104 19.8546 180.329 21.8748 180.37 23.9614C180.326 26.0497 181.101 28.0724 182.528 29.5972C183.956 31.1219 185.923 32.028 188.01 32.1216C190.098 32.0306 192.068 31.1256 193.498 29.6006C194.928 28.0755 195.704 26.0514 195.66 23.9614C195.701 21.8732 194.924 19.8515 193.494 18.3286C192.065 16.8057 190.096 15.9025 188.01 15.8115Z" fill="#4558A6"/>
<path d="M215.29 11.2217C217.199 11.2551 219.078 11.7054 220.795 12.5415C222.512 13.3776 224.026 14.579 225.23 16.0615L221.91 19.3813C221.162 18.3105 220.174 17.43 219.024 16.8101C217.874 16.1901 216.595 15.8481 215.29 15.8115C213.203 15.9025 211.235 16.8057 209.805 18.3286C208.376 19.8515 207.599 21.8732 207.64 23.9614C207.596 26.0514 208.372 28.0755 209.802 29.6006C211.231 31.1256 213.201 32.0306 215.29 32.1216C219.62 32.1216 222.17 28.3018 222.17 28.3018L225.48 31.6113C225.48 31.6113 221.66 36.7114 215.29 36.7114C211.928 36.6474 208.723 35.2836 206.345 32.9062C203.968 30.5289 202.604 27.3229 202.54 23.9614C202.606 20.6017 203.972 17.3982 206.349 15.0229C208.726 12.6477 211.93 11.2856 215.29 11.2217Z" fill="#4558A6"/>
<path d="M241.03 21.9214L251.23 36.2017H245.62L237.72 25.2017L233.89 29.2817V36.1616H228.79V0.561523H233.89V22.7417L244.34 11.7417H250.46L241.03 21.9214Z" fill="#4558A6"/>
<path d="M256.07 3.56152H260.66V11.7217H265.75V16.3115H260.66V29.0015C260.645 29.4046 260.712 29.8068 260.856 30.1836C261 30.5604 261.219 30.904 261.499 31.1943C261.779 31.4847 262.115 31.7155 262.486 31.873C262.857 32.0306 263.257 32.1116 263.66 32.1113C264.532 32.0841 265.394 31.912 266.21 31.6016V36.1914C265.054 36.5332 263.855 36.7053 262.65 36.7017C258.06 36.7017 255.51 34.1518 255.51 29.0518V16.3115H250.92V11.7217H253.47C255 11.7217 256.02 10.7216 256.02 8.66162L256.07 3.56152Z" fill="#4558A6"/>
<path d="M284.62 36.2017V33.6514C282.642 35.5899 279.99 36.6867 277.22 36.7115C272.12 36.7115 268.56 33.1413 268.56 29.5713C268.56 25.4913 271.36 22.6914 275.69 21.9214L284.62 20.4014C284.62 17.8514 282.62 15.8116 279.52 15.8116C278.268 15.8054 277.033 16.1032 275.922 16.6797C274.811 17.2563 273.856 18.0945 273.14 19.1216L269.83 15.8116C271.001 14.3729 272.479 13.2141 274.156 12.42C275.832 11.6258 277.665 11.2165 279.52 11.2217C285.63 11.2217 289.71 15.3014 289.71 20.4014V36.2017H284.62ZM284.62 24.9815V24.4717L276.71 25.7515C275.88 25.8258 275.108 26.2058 274.542 26.8174C273.977 27.429 273.659 28.2287 273.65 29.0616C273.65 30.5916 275.18 32.1216 277.99 32.1216C282.07 32.1216 284.62 29.5615 284.62 24.9815Z" fill="#4558A6"/>
<path d="M297.36 7.14173C296.956 7.14989 296.554 7.07631 296.179 6.92542C295.804 6.77453 295.464 6.54959 295.178 6.2638C294.892 5.97801 294.667 5.63728 294.516 5.26233C294.365 4.88738 294.292 4.48575 294.3 4.08167C294.292 3.67758 294.365 3.27595 294.516 2.901C294.667 2.52606 294.892 2.18533 295.178 1.89954C295.464 1.61375 295.804 1.38881 296.179 1.23792C296.554 1.08703 296.956 1.01344 297.36 1.02161C297.764 1.01344 298.165 1.08703 298.54 1.23792C298.915 1.38881 299.256 1.61375 299.542 1.89954C299.827 2.18533 300.053 2.52606 300.203 2.901C300.354 3.27595 300.428 3.67758 300.42 4.08167C300.428 4.48575 300.354 4.88738 300.203 5.26233C300.053 5.63728 299.827 5.97801 299.542 6.2638C299.256 6.54959 298.915 6.77453 298.54 6.92542C298.165 7.07631 297.764 7.14989 297.36 7.14173ZM299.91 36.2018H294.81V11.7316H299.91V36.2018Z" fill="#4558A6"/>
<path d="M310.61 36.2017H305.52V0.561523H310.61V36.2017Z" fill="#4558A6"/>
<path d="M357 6.89143L353.44 10.4515C352.152 8.76206 350.486 7.39769 348.576 6.46858C346.666 5.53946 344.564 5.07138 342.44 5.10139C340.696 5.08941 338.966 5.42448 337.353 6.08674C335.739 6.749 334.273 7.72498 333.041 8.95881C331.808 10.1926 330.832 11.6596 330.171 13.2738C329.51 14.8879 329.177 16.617 329.19 18.3612C329.178 20.1045 329.512 21.8331 330.174 23.4461C330.836 25.0591 331.811 26.5244 333.044 27.7572C334.277 28.9899 335.742 29.9656 337.355 30.6273C338.968 31.2889 340.697 31.6231 342.44 31.6112C344.615 31.597 346.757 31.0843 348.702 30.1116C350.648 29.139 352.344 27.7326 353.66 26.0013L357.23 29.5711C355.456 31.7917 353.206 33.5864 350.646 34.8221C348.087 36.0578 345.282 36.7032 342.44 36.7113C331.74 36.7113 323.58 28.5512 323.58 18.3612C323.58 8.17115 331.74 0.00129216 342.44 0.00129216C345.231 -0.031813 347.993 0.5716 350.515 1.76545C353.038 2.9593 355.256 4.71234 357 6.89143Z" fill="#4558A6"/>
<path d="M365.92 36.2017H360.83V0.561523H365.92V36.2017Z" fill="#4558A6"/>
<path d="M382.49 11.2217C385.85 11.2856 389.054 12.6477 391.431 15.0229C393.808 17.3982 395.173 20.6017 395.24 23.9614C395.176 27.3229 393.812 30.5289 391.435 32.9062C389.057 35.2836 385.851 36.6474 382.49 36.7114C379.13 36.6448 375.927 35.2799 373.552 32.9028C371.176 30.5258 369.814 27.3212 369.75 23.9614C369.817 20.6034 371.18 17.4013 373.555 15.0264C375.93 12.6514 379.132 11.2882 382.49 11.2217ZM382.49 15.8115C380.403 15.9025 378.435 16.8057 377.005 18.3286C375.576 19.8515 374.799 21.8732 374.84 23.9614C374.796 26.0514 375.572 28.0755 377.002 29.6006C378.431 31.1256 380.402 32.0306 382.49 32.1216C384.578 32.0306 386.548 31.1256 387.978 29.6006C389.408 28.0755 390.184 26.0514 390.14 23.9614C390.181 21.8732 389.404 19.8515 387.974 18.3286C386.545 16.8057 384.577 15.9025 382.49 15.8115Z" fill="#4558A6"/>
<path d="M415.88 33.6514C413.907 35.591 411.257 36.6882 408.49 36.7114C402.63 36.7114 398.55 32.6315 398.55 26.0015V11.7314H403.65V26.0015C403.61 26.7937 403.733 27.5854 404.01 28.3286C404.287 29.0718 404.713 29.7508 405.262 30.3237C405.81 30.8966 406.47 31.3515 407.2 31.6606C407.931 31.9698 408.717 32.1266 409.51 32.1216C413.33 32.1216 415.88 29.5714 415.88 24.9814V11.7314H420.98V36.2017H415.88V33.6514Z" fill="#4558A6"/>
<path d="M444.43 14.5615V0.561523H449.53V36.2515H444.43V33.4517C442.318 35.5267 439.49 36.7117 436.53 36.7617C430.16 36.7617 424.53 31.1517 424.53 24.0117C424.53 16.8717 430.14 11.2715 436.53 11.2715C439.487 11.3162 442.315 12.4938 444.43 14.5615ZM444.43 23.9917C444.43 19.4117 440.86 15.8413 437.04 15.8413C433.22 15.8413 429.65 19.4117 429.65 23.9917C429.65 28.5717 433.21 32.1514 437.04 32.1514C440.87 32.1514 444.43 28.5614 444.43 23.9614V23.9917Z" fill="#4558A6"/>
<path d="M140.56 49.3916H143.37L155.86 81.2515L168.35 49.3916H171.15L157.15 85.0815H154.6L140.56 49.3916Z" fill="#4558A6"/>
<path d="M175.99 50.1614C176.226 50.1545 176.461 50.1956 176.681 50.2825C176.9 50.3694 177.1 50.5002 177.267 50.6668C177.435 50.8333 177.567 51.0321 177.655 51.2512C177.743 51.4704 177.785 51.7051 177.78 51.9412C177.785 52.1777 177.743 52.4129 177.655 52.6326C177.567 52.8522 177.435 53.0517 177.268 53.219C177.101 53.3863 176.901 53.5182 176.681 53.6062C176.462 53.6942 176.227 53.7367 175.99 53.7312C175.754 53.7367 175.519 53.6943 175.3 53.6062C175.081 53.5181 174.882 53.386 174.715 53.2185C174.549 53.0511 174.418 52.8517 174.331 52.6321C174.244 52.4125 174.203 52.1773 174.21 51.9412C174.203 51.7055 174.244 51.4713 174.331 51.2522C174.418 51.0331 174.549 50.8339 174.716 50.6673C174.883 50.5006 175.081 50.3695 175.301 50.2825C175.52 50.1955 175.754 50.1545 175.99 50.1614ZM174.72 60.6111H177.01V85.0813H174.72V60.6111Z" fill="#4558A6"/>
<path d="M195.87 62.3916H194.87C193.71 62.3897 192.561 62.621 191.491 63.0718C190.422 63.5226 189.455 64.1836 188.646 65.0156C187.837 65.8477 187.204 66.8335 186.784 67.915C186.364 68.9966 186.165 70.1517 186.2 71.3115V85.0815H183.9V60.6113H186.2V64.6914C186.2 64.6914 188.49 60.1016 194.87 60.1016H195.87V62.3916Z" fill="#4558A6"/>
<path d="M200.97 52.4517H202.97V60.6113H208.58V62.9014H202.97V78.9614C202.97 81.7614 204.5 83.2915 206.8 83.2915C207.944 83.2682 209.07 83.0097 210.11 82.5317V84.8213C209.072 85.3049 207.945 85.5671 206.8 85.5913C202.97 85.5913 200.68 83.2914 200.68 78.9614V62.9014H195.83V60.6113H199.15C199.401 60.607 199.649 60.5508 199.878 60.4458C200.107 60.3409 200.311 60.1899 200.478 60.002C200.646 59.814 200.772 59.5933 200.85 59.354C200.928 59.1147 200.955 58.8617 200.93 58.6113L200.97 52.4517Z" fill="#4558A6"/>
<path d="M232.83 80.7417C232.007 82.2433 230.788 83.4899 229.304 84.3452C227.821 85.2006 226.132 85.6314 224.42 85.5913C218.82 85.5913 214.48 81.2516 214.48 75.1416V60.6113H216.78V75.1416C216.78 79.9816 220.09 83.2915 224.42 83.2915C225.561 83.2671 226.685 83.016 227.728 82.5527C228.77 82.0895 229.71 81.4234 230.493 80.5933C231.276 79.7631 231.886 78.7854 232.287 77.7173C232.688 76.6491 232.873 75.5118 232.83 74.3716V60.6113H235.13V85.0815H232.83V80.7417Z" fill="#4558A6"/>
<path d="M256.28 69.7817C256.28 65.5517 253.28 62.3916 249.4 62.3916C248.023 62.439 246.673 62.7824 245.441 63.3984C244.209 64.0145 243.124 64.8885 242.26 65.9614L240.73 64.4316C241.773 63.1224 243.089 62.0565 244.586 61.3086C246.084 60.5607 247.727 60.1488 249.4 60.1016C254.65 60.1016 258.58 64.3317 258.58 69.7817V85.0815H256.28V81.0015C255.28 82.436 253.945 83.6043 252.39 84.4043C250.835 85.2043 249.108 85.6117 247.36 85.5913C242.52 85.5913 239.21 82.2714 239.21 78.7114C239.21 74.8814 242.01 72.0315 246.6 71.3115L256.28 69.7817ZM256.28 74.3716V72.0815L247.11 73.6113C243.28 74.2213 241.5 76.1614 241.5 78.7114C241.5 81.0014 243.79 83.2915 247.36 83.2915C248.539 83.3203 249.712 83.1095 250.807 82.6714C251.902 82.2333 252.897 81.5773 253.731 80.7432C254.566 79.9091 255.222 78.9141 255.66 77.8188C256.098 76.7236 256.309 75.5508 256.28 74.3716Z" fill="#4558A6"/>
<path d="M267.24 85.0815H264.95V49.3916H267.24V85.0815Z" fill="#4558A6"/>
<path d="M275.4 50.1614C275.636 50.1545 275.87 50.1955 276.089 50.2825C276.308 50.3695 276.507 50.5006 276.674 50.6673C276.841 50.8339 276.972 51.0331 277.059 51.2522C277.146 51.4713 277.187 51.7055 277.18 51.9412C277.187 52.1773 277.146 52.4125 277.059 52.6321C276.972 52.8517 276.841 53.0511 276.674 53.2185C276.508 53.386 276.309 53.5181 276.09 53.6062C275.871 53.6943 275.636 53.7367 275.4 53.7312C275.164 53.7367 274.929 53.6943 274.71 53.6062C274.491 53.5181 274.292 53.386 274.125 53.2185C273.959 53.0511 273.828 52.8517 273.741 52.6321C273.654 52.4125 273.613 52.1773 273.62 51.9412C273.613 51.7055 273.654 51.4713 273.741 51.2522C273.828 51.0331 273.959 50.8339 274.126 50.6673C274.292 50.5006 274.492 50.3695 274.711 50.2825C274.93 50.1955 275.164 50.1545 275.4 50.1614ZM274.12 60.6111H276.42V85.0813H274.13L274.12 60.6111Z" fill="#4558A6"/>
<path d="M299.13 62.9014L283.33 82.7817H299.64V85.0815H280.53V82.7817L296.33 62.9014H281.04V60.6113H299.13V62.9014Z" fill="#4558A6"/>
<path d="M318.22 69.7817C318.22 65.5517 315.22 62.3916 311.34 62.3916C309.963 62.4376 308.612 62.7803 307.38 63.3965C306.148 64.0126 305.063 64.8875 304.2 65.9614L302.67 64.4316C303.712 63.1214 305.028 62.0546 306.526 61.3066C308.023 60.5587 309.666 60.1475 311.34 60.1016C316.59 60.1016 320.51 64.3317 320.51 69.7817V85.0815H318.22V81.0015C317.22 82.436 315.885 83.6043 314.33 84.4043C312.775 85.2043 311.048 85.6117 309.3 85.5913C304.46 85.5913 301.14 82.2714 301.14 78.7114C301.14 74.8814 303.95 72.0315 308.54 71.3115L318.22 69.7817ZM318.22 74.3716V72.0815L309.04 73.6113C305.22 74.2213 303.44 76.1614 303.44 78.7114C303.44 81.0014 305.73 83.2915 309.3 83.2915C310.479 83.3203 311.652 83.1095 312.747 82.6714C313.842 82.2333 314.837 81.5773 315.671 80.7432C316.505 79.9091 317.162 78.9141 317.6 77.8188C318.038 76.7236 318.249 75.5508 318.22 74.3716Z" fill="#4558A6"/>
<path d="M328.92 52.4517H330.92V60.6113H336.53V62.9014H330.92V78.9614C330.92 81.7614 332.45 83.2915 334.75 83.2915C335.894 83.2682 337.02 83.0097 338.06 82.5317V84.8213C337.022 85.3049 335.895 85.5671 334.75 85.5913C330.92 85.5913 328.63 83.2914 328.63 78.9614V62.9014H323.79V60.6113H327.13C327.381 60.607 327.629 60.5508 327.858 60.4458C328.087 60.3409 328.291 60.1899 328.458 60.002C328.626 59.814 328.752 59.5933 328.83 59.354C328.908 59.1147 328.935 58.8617 328.91 58.6113L328.92 52.4517Z" fill="#4558A6"/>
<path d="M343.71 50.1614C343.946 50.1545 344.18 50.1955 344.399 50.2825C344.618 50.3695 344.817 50.5006 344.984 50.6673C345.151 50.8339 345.281 51.0331 345.368 51.2522C345.455 51.4713 345.497 51.7055 345.49 51.9412C345.497 52.1773 345.456 52.4125 345.369 52.6321C345.282 52.8517 345.151 53.0511 344.984 53.2185C344.818 53.386 344.619 53.5181 344.4 53.6062C344.181 53.6943 343.946 53.7367 343.71 53.7312C343.473 53.7367 343.238 53.6942 343.019 53.6062C342.799 53.5182 342.599 53.3863 342.432 53.219C342.265 53.0517 342.133 52.8522 342.045 52.6326C341.957 52.4129 341.914 52.1777 341.92 51.9412C341.914 51.7051 341.957 51.4704 342.045 51.2512C342.133 51.0321 342.265 50.8333 342.432 50.6668C342.6 50.5002 342.8 50.3694 343.019 50.2825C343.239 50.1956 343.474 50.1545 343.71 50.1614ZM342.43 60.6111H344.73V85.0813H342.43V60.6111Z" fill="#4558A6"/>
<path d="M361.81 60.1016C365.118 60.1777 368.262 61.5604 370.554 63.9478C372.845 66.3351 374.099 69.5325 374.04 72.8413C374.101 76.1518 372.849 79.3522 370.557 81.7417C368.265 84.1312 365.12 85.5152 361.81 85.5913C358.498 85.5178 355.35 84.1349 353.056 81.7451C350.762 79.3553 349.508 76.1535 349.57 72.8413C349.511 69.5308 350.766 66.3319 353.06 63.9443C355.353 61.5567 358.5 60.1751 361.81 60.1016ZM361.81 62.3916C359.108 62.4676 356.546 63.6088 354.682 65.5664C352.818 67.524 351.803 70.1389 351.86 72.8413C351.801 75.5445 352.814 78.1615 354.679 80.1196C356.543 82.0778 359.107 83.2181 361.81 83.2915C364.511 83.2156 367.072 82.0741 368.935 80.1162C370.797 78.1583 371.809 75.5428 371.75 72.8413C371.807 70.1405 370.793 67.5271 368.932 65.5698C367.07 63.6125 364.51 62.4702 361.81 62.3916Z" fill="#4558A6"/>
<path d="M381.18 64.9412C382.004 63.4414 383.224 62.197 384.707 61.3435C386.19 60.49 387.879 60.0603 389.59 60.1013C395.2 60.1013 399.53 64.4315 399.53 70.5515V85.0813H397.24V70.5613C397.24 65.7213 393.92 62.4011 389.59 62.4011C388.45 62.4269 387.326 62.6791 386.284 63.1428C385.242 63.6066 384.302 64.2729 383.52 65.1028C382.737 65.9327 382.127 66.9098 381.726 67.9773C381.324 69.0448 381.139 70.1812 381.18 71.321V85.0911H378.88V60.6213H381.18V64.9412Z" fill="#4558A6"/>
</svg>
