<svg width="76" height="25" viewBox="0 0 76 25" fill="none" xmlns="http://www.w3.org/2000/svg">
<g clip-path="url(#clip0_157400_166188)">
<path d="M10.183 2.03153L9.15368 3.05857C8.78355 2.57307 8.30504 2.18082 7.75636 1.91314C7.20767 1.64545 6.604 1.50976 5.99354 1.51687C4.99639 1.54111 4.04824 1.95426 3.35156 2.66808C2.65488 3.3819 2.2649 4.33981 2.2649 5.33726C2.2649 6.3347 2.65488 7.29262 3.35156 8.00644C4.04824 8.72025 4.99639 9.1334 5.99354 9.15764C6.62036 9.15334 7.23785 9.00542 7.79858 8.72525C8.35931 8.44508 8.84836 8.04011 9.22817 7.54145L10.2552 8.57753C9.74383 9.2173 9.09555 9.73431 8.35805 10.0906C7.62055 10.4468 6.81258 10.6332 5.99354 10.6361C2.91015 10.6361 0.558105 8.28409 0.558105 5.34516C0.558105 2.40623 2.91015 0.0564392 5.99354 0.0564392C6.79578 0.0472491 7.58964 0.22023 8.31533 0.56235C9.04101 0.90447 9.6796 1.40681 10.183 2.03153Z" fill="white" stroke="white" stroke-width="0.5" stroke-miterlimit="10"/>
<path d="M14.3703 3.28882C15.3396 3.30395 16.2649 3.69573 16.9504 4.38121C17.6359 5.06669 18.0277 5.99205 18.0428 6.96135C18.0428 7.93537 17.6559 8.86949 16.9672 9.55822C16.2784 10.247 15.3443 10.6339 14.3703 10.6339C13.3963 10.6339 12.4621 10.247 11.7734 9.55822C11.0847 8.86949 10.6978 7.93537 10.6978 6.96135C10.7129 5.99205 11.1047 5.06669 11.7901 4.38121C12.4756 3.69573 13.401 3.30395 14.3703 3.28882ZM14.3703 4.61156C13.1943 4.61156 12.1672 5.64086 12.1672 6.96135C12.1672 8.28184 13.1943 9.3134 14.3703 9.3134C15.5463 9.3134 16.5756 8.28409 16.5756 6.96135C16.5756 5.63861 15.5463 4.61156 14.3703 4.61156Z" fill="white" stroke="white" stroke-width="0.5" stroke-miterlimit="10"/>
<path d="M22.2321 3.28882C22.7839 3.29741 23.3271 3.42675 23.8235 3.66775C24.3199 3.90875 24.7575 4.25556 25.1056 4.68379L24.1417 5.64312C23.9259 5.3344 23.6407 5.08051 23.3091 4.90177C22.9775 4.72303 22.6087 4.62442 22.2321 4.61382C21.0561 4.61382 20.0268 5.64312 20.0268 6.96361C20.0268 8.28409 21.0561 9.31565 22.2321 9.31565C23.4804 9.31565 24.2162 8.21412 24.2162 8.21412L25.171 9.16893C25.171 9.16893 24.0672 10.6384 22.2366 10.6384C21.2659 10.6238 20.3391 10.2318 19.6527 9.54531C18.9662 8.85886 18.5741 7.93203 18.5596 6.96135C18.5753 5.99223 18.9672 5.0672 19.6526 4.38184C20.338 3.69648 21.263 3.30451 22.2321 3.28882Z" fill="white" stroke="white" stroke-width="0.5" stroke-miterlimit="10"/>
<path d="M29.6517 6.37445L32.5861 10.4894H30.9745L28.6969 7.32927L27.5886 8.50529V10.4894H26.1191V0.203156H27.5886V6.59566L30.5998 3.43553H32.3627L29.6517 6.37445Z" fill="white" stroke="white" stroke-width="0.5" stroke-miterlimit="10"/>
<path d="M33.988 1.08575H35.3085V3.43554H36.778V4.75829H35.3085V8.41728C35.3015 8.53594 35.3194 8.65476 35.361 8.76612C35.4026 8.87748 35.467 8.97891 35.5501 9.06392C35.6332 9.14893 35.7331 9.21563 35.8435 9.25976C35.9539 9.30389 36.0723 9.32447 36.1911 9.32017C36.4421 9.31241 36.69 9.26282 36.9247 9.17345V10.4962C36.5913 10.5947 36.2453 10.6441 35.8976 10.6429C34.5749 10.6429 33.839 9.90706 33.839 8.43759V4.75829H32.5186V3.43554H33.2522C33.6923 3.43554 33.988 3.1421 33.988 2.55522V1.08575Z" fill="white" stroke="white" stroke-width="0.5" stroke-miterlimit="10"/>
<path d="M42.2155 10.4894V9.75354C41.6464 10.3127 40.8825 10.6291 40.0847 10.6361C38.6152 10.6361 37.5859 9.60682 37.5859 8.57752C37.5859 7.40375 38.394 6.59566 39.6445 6.37445L42.2155 5.93429C42.2155 5.19843 41.6264 4.61154 40.7461 4.61154C40.3854 4.61027 40.0299 4.69648 39.7098 4.86278C39.3898 5.02907 39.1149 5.2705 38.9087 5.56636L37.9539 4.61154C38.2914 4.19704 38.7173 3.86318 39.2003 3.63433C39.6834 3.40548 40.2115 3.28743 40.7461 3.2888C42.509 3.2888 43.6805 4.46482 43.6805 5.93429V10.4894H42.2155ZM42.2155 7.25703V7.11031L39.938 7.47598C39.6988 7.49775 39.4762 7.60741 39.3132 7.78376C39.1502 7.96012 39.0583 8.19065 39.0554 8.4308C39.0554 8.88224 39.5069 9.31338 40.3059 9.31338C41.4797 9.31338 42.2155 8.57752 42.2155 7.25703Z" fill="white" stroke="white" stroke-width="0.5" stroke-miterlimit="10"/>
<path d="M45.8878 2.11279C45.7709 2.11757 45.6543 2.09807 45.5453 2.05552C45.4364 2.01297 45.3374 1.94829 45.2547 1.86557C45.172 1.78286 45.1073 1.68389 45.0648 1.57492C45.0222 1.46596 45.0027 1.34935 45.0075 1.23247C45.0014 1.11296 45.0197 0.993474 45.0613 0.881266C45.1029 0.769058 45.1668 0.666474 45.2493 0.57975C45.3317 0.493025 45.4309 0.423971 45.5409 0.376786C45.6509 0.3296 45.7693 0.305267 45.8889 0.305267C46.0086 0.305267 46.127 0.3296 46.237 0.376786C46.3469 0.423971 46.4461 0.493025 46.5286 0.57975C46.611 0.666474 46.675 0.769058 46.7166 0.881266C46.7581 0.993474 46.7764 1.11296 46.7704 1.23247C46.7748 1.34946 46.755 1.46611 46.7122 1.57509C46.6694 1.68406 46.6045 1.78299 46.5216 1.86568C46.4387 1.94836 46.3396 2.01299 46.2306 2.05552C46.1215 2.09805 46.0048 2.11755 45.8878 2.11279ZM46.6237 10.4894H45.1542V3.43554H46.6237V10.4894Z" fill="white" stroke="white" stroke-width="0.5" stroke-miterlimit="10"/>
<path d="M49.7097 10.4894H48.2402V0.203156H49.7097V10.4894Z" fill="white" stroke="white" stroke-width="0.5" stroke-miterlimit="10"/>
<path d="M0.693359 14.2928H1.50145L5.11304 23.4753L8.72463 14.2928H9.53272L5.46743 24.5768H4.73382L0.693359 14.2928Z" fill="white" stroke="white" stroke-width="0.5" stroke-miterlimit="10"/>
<path d="M10.9049 14.5118C11.0067 14.5118 11.1062 14.542 11.1908 14.5985C11.2755 14.6551 11.3414 14.7354 11.3804 14.8295C11.4193 14.9235 11.4295 15.027 11.4097 15.1268C11.3898 15.2267 11.3408 15.3184 11.2688 15.3904C11.1969 15.4623 11.1052 15.5113 11.0053 15.5312C10.9055 15.5511 10.802 15.5409 10.708 15.5019C10.6139 15.463 10.5336 15.397 10.477 15.3124C10.4204 15.2277 10.3903 15.1282 10.3903 15.0264C10.3887 14.9584 10.401 14.8908 10.4263 14.8277C10.4516 14.7645 10.4895 14.7072 10.5376 14.6591C10.5857 14.611 10.643 14.5731 10.7062 14.5478C10.7693 14.5225 10.8369 14.5102 10.9049 14.5118ZM10.5392 17.5252H11.1984V24.5768H10.5392V17.5252Z" fill="white" stroke="white" stroke-width="0.5" stroke-miterlimit="10"/>
<path d="M16.6362 18.0399H16.3428C16.0078 18.0375 15.6759 18.103 15.3669 18.2323C15.0579 18.3616 14.7783 18.5521 14.5448 18.7923C14.3114 19.0324 14.129 19.3174 14.0085 19.6299C13.8881 19.9425 13.8321 20.2761 13.844 20.6109V24.5769H13.1826V17.5252H13.844V18.7013C13.844 18.7013 14.4963 17.3808 16.3428 17.3808H16.6362V18.0399Z" fill="white" stroke="white" stroke-width="0.5" stroke-miterlimit="10"/>
<path d="M18.108 15.1732H18.6948V17.5252H20.311V18.1866H18.6926V22.8139C18.6926 23.622 19.144 24.0644 19.7964 24.0644C20.1268 24.056 20.4519 23.9791 20.7512 23.8387V24.5001C20.4517 24.6399 20.1267 24.7167 19.7964 24.7258C18.6926 24.7258 18.0335 24.0667 18.0335 22.8162V18.1866H16.6362V17.5252H17.591C17.6657 17.5246 17.7393 17.5081 17.807 17.4768C17.8748 17.4456 17.9351 17.4003 17.984 17.3439C18.0329 17.2875 18.0692 17.2214 18.0906 17.1499C18.112 17.0785 18.1179 17.0032 18.108 16.9293V15.1732Z" fill="white" stroke="white" stroke-width="0.5" stroke-miterlimit="10"/>
<path d="M27.2882 23.3286C27.0508 23.761 26.6991 24.1198 26.2716 24.3658C25.844 24.6118 25.3571 24.7356 24.864 24.7236C23.2478 24.7236 21.9995 23.4753 21.9995 21.7124V17.5252H22.6609V21.7124C22.6609 23.1074 23.6157 24.0644 24.864 24.0644C26.1867 24.0644 27.2882 22.9606 27.2882 21.4912V17.5252H27.9496V24.5768H27.2882V23.3286Z" fill="white" stroke="white" stroke-width="0.5" stroke-miterlimit="10"/>
<path d="M34.0485 20.1707C34.0485 18.9496 33.1953 18.0399 32.0644 18.0399C31.6679 18.053 31.279 18.1516 30.9241 18.3288C30.5692 18.5061 30.2567 18.7578 30.0081 19.0669L29.5679 18.6155C29.869 18.2403 30.2484 17.9353 30.6796 17.7221C31.1109 17.5088 31.5835 17.3923 32.0644 17.3808C33.579 17.3808 34.7099 18.5997 34.7099 20.173V24.5791H34.0485V23.4053C33.7599 23.8182 33.3749 24.1543 32.9268 24.3844C32.4787 24.6146 31.9812 24.7318 31.4775 24.7258C30.0803 24.7258 29.1255 23.771 29.1255 22.744C29.1255 21.6402 29.9336 20.8185 31.2563 20.6131L34.0485 20.1707ZM34.0485 21.4912V20.8298L31.403 21.2813C30.3015 21.4573 29.7869 22.0149 29.7869 22.7507C29.7869 23.4121 30.4482 24.0735 31.4775 24.0735C31.8183 24.0816 32.1572 24.0202 32.4735 23.8932C32.7899 23.7661 33.0771 23.576 33.3176 23.3345C33.5581 23.0929 33.7469 22.8049 33.8726 22.488C33.9983 22.1711 34.0581 21.832 34.0485 21.4912Z" fill="white" stroke="white" stroke-width="0.5" stroke-miterlimit="10"/>
<path d="M37.2087 24.5768H36.5474V14.2928H37.2087V24.5768Z" fill="white" stroke="white" stroke-width="0.5" stroke-miterlimit="10"/>
<path d="M39.5519 14.5118C39.6537 14.5118 39.7532 14.542 39.8378 14.5985C39.9224 14.6551 39.9884 14.7354 40.0274 14.8295C40.0663 14.9235 40.0765 15.027 40.0567 15.1268C40.0368 15.2267 39.9878 15.3184 39.9158 15.3904C39.8438 15.4623 39.7521 15.5113 39.6523 15.5312C39.5525 15.5511 39.449 15.5409 39.3549 15.5019C39.2609 15.463 39.1805 15.397 39.124 15.3124C39.0674 15.2277 39.0372 15.1282 39.0372 15.0264C39.0357 14.9584 39.048 14.8908 39.0733 14.8277C39.0986 14.7645 39.1364 14.7072 39.1845 14.6591C39.2326 14.611 39.29 14.5731 39.3531 14.5478C39.4163 14.5225 39.4839 14.5102 39.5519 14.5118ZM39.1907 17.5252H39.8521V24.5768H39.1907V17.5252Z" fill="white" stroke="white" stroke-width="0.5" stroke-miterlimit="10"/>
<path d="M46.391 18.1866L41.8359 23.9267H46.549V24.5881H41.0278V23.9267L45.5829 18.1979H41.1746V17.5252H46.391V18.1866Z" fill="white" stroke="white" stroke-width="0.5" stroke-miterlimit="10"/>
<path d="M51.9011 20.1707C51.9011 18.9496 51.0501 18.0399 49.917 18.0399C49.5205 18.053 49.1315 18.1516 48.7766 18.3288C48.4217 18.5061 48.1093 18.7578 47.8606 19.0669L47.4204 18.6155C47.7215 18.2403 48.1009 17.9353 48.5322 17.7221C48.9634 17.5088 49.436 17.3923 49.917 17.3808C51.4316 17.3808 52.5624 18.5997 52.5624 20.173V24.5791H51.9011V23.4053C51.6125 23.8182 51.2274 24.1543 50.7793 24.3844C50.3313 24.6146 49.8338 24.7318 49.3301 24.7258C47.9351 24.7258 46.978 23.771 46.978 22.744C46.978 21.6402 47.7861 20.8185 49.1089 20.6131L51.9011 20.1707ZM51.9011 21.4912V20.8298L49.2556 21.2813C48.1541 21.4573 47.6394 22.0149 47.6394 22.7507C47.6394 23.4121 48.3008 24.0735 49.3301 24.0735C49.6709 24.0816 50.0098 24.0202 50.3261 23.8932C50.6424 23.7661 50.9296 23.576 51.1701 23.3345C51.4106 23.0929 51.5995 22.8049 51.7251 22.488C51.8508 22.1711 51.9107 21.832 51.9011 21.4912Z" fill="white" stroke="white" stroke-width="0.5" stroke-miterlimit="10"/>
<path d="M54.9867 15.1732H55.5781V17.5252H57.1943V18.1866H55.5781V22.8139C55.5781 23.622 56.0183 24.0644 56.6797 24.0644C57.0102 24.0563 57.3354 23.9795 57.6345 23.8387V24.5001C57.3352 24.6403 57.0101 24.7171 56.6797 24.7258C55.5781 24.7258 54.9168 24.0667 54.9168 22.8162V18.1866H53.5195V17.5252H54.4743C54.5487 17.5243 54.622 17.5076 54.6894 17.4762C54.7568 17.4448 54.8167 17.3994 54.8651 17.343C54.9136 17.2866 54.9495 17.2206 54.9705 17.1492C54.9915 17.0779 54.997 17.0029 54.9867 16.9293V15.1732Z" fill="white" stroke="white" stroke-width="0.5" stroke-miterlimit="10"/>
<path d="M59.2485 14.5118C59.3505 14.5109 59.4505 14.5403 59.5357 14.5963C59.6209 14.6523 59.6876 14.7324 59.7272 14.8264C59.7669 14.9203 59.7777 15.0239 59.7584 15.1241C59.739 15.2242 59.6904 15.3163 59.6186 15.3887C59.5468 15.4612 59.4551 15.5106 59.3551 15.5309C59.2552 15.5511 59.1515 15.5412 59.0572 15.5023C58.9629 15.4635 58.8822 15.3976 58.8255 15.3128C58.7687 15.2281 58.7384 15.1284 58.7384 15.0264C58.7369 14.9588 58.749 14.8916 58.774 14.8288C58.7991 14.7659 58.8365 14.7088 58.8842 14.6608C58.9318 14.6127 58.9886 14.5748 59.0512 14.5492C59.1138 14.5236 59.1809 14.5109 59.2485 14.5118ZM58.8806 17.5252H59.542V24.5768H58.8806V17.5252Z" fill="white" stroke="white" stroke-width="0.5" stroke-miterlimit="10"/>
<path d="M64.465 17.3808C66.3746 17.3808 67.993 18.9947 67.993 21.051C67.993 23.1074 66.3768 24.7236 64.4672 24.7236C62.5576 24.7236 60.9414 23.1074 60.9414 21.051C60.9414 18.9947 62.5553 17.3808 64.465 17.3808ZM64.465 18.0421C62.921 18.0421 61.6005 19.3649 61.6005 21.0533C61.6005 22.7417 62.921 24.0667 64.465 24.0667C66.0089 24.0667 67.3294 22.744 67.3294 21.0533C67.3294 19.3626 66.0067 18.0399 64.465 18.0399V18.0421Z" fill="white" stroke="white" stroke-width="0.5" stroke-miterlimit="10"/>
<path d="M70.0496 18.7735C70.2876 18.3418 70.6395 17.9837 71.067 17.7382C71.4944 17.4926 71.981 17.369 72.4738 17.3807C74.09 17.3807 75.3383 18.629 75.3383 20.3919V24.5791H74.6769V20.3896C74.6769 18.9947 73.7221 18.0399 72.4738 18.0399C71.1511 18.0399 70.0496 19.1414 70.0496 20.6109V24.5768H69.3882V17.5252H70.0496V18.7735Z" fill="white" stroke="white" stroke-width="0.5" stroke-miterlimit="10"/>
</g>
<defs>
<clipPath id="clip0_157400_166188">
<rect width="74.893" height="24.78" fill="white" transform="translate(0.501465)"/>
</clipPath>
</defs>
</svg>
