<svg width="48" height="37" viewBox="0 0 48 37" fill="none" xmlns="http://www.w3.org/2000/svg">
<path d="M32.2005 21.2457C35.3206 21.2457 39.8385 20.5967 39.8385 16.8775C39.8384 16.593 39.8133 16.309 39.7636 16.0289L37.9165 7.9415C37.4922 6.16927 37.1178 5.34556 33.9977 3.79797C31.5764 2.54992 26.3097 0.528084 24.7371 0.528084C23.2644 0.528084 22.8401 2.40016 21.1178 2.40016C19.4454 2.40016 18.2223 1.00234 16.6498 1.00234C15.1521 1.00234 14.1786 2.02574 13.4298 4.12247C13.4298 4.12247 11.3331 10.0382 11.0585 10.9119C11.0173 11.0664 11.0004 11.2264 11.0086 11.3861C10.9836 13.6825 20.0445 21.2208 32.2005 21.2457ZM40.3128 18.4002C40.7371 20.447 40.7371 20.6716 40.7371 20.9212C40.7371 24.4158 36.8183 26.3627 31.6513 26.3627C19.9696 26.3627 9.76053 19.5234 9.76053 15.0055C9.75938 14.3789 9.88682 13.7587 10.1349 13.1833C5.9415 13.383 0.5 14.1318 0.5 18.9243C0.5 26.7871 19.1209 36.4719 33.8479 36.4719C45.1552 36.4719 48.0008 31.3549 48.0008 27.3112C48.0008 24.1412 45.2551 20.5468 40.3128 18.4002Z" fill="#EE0000"/>
<path d="M40.1458 18.4015C40.5657 20.4203 40.5657 20.6419 40.5657 20.8881C40.5657 24.3347 36.6876 26.255 31.5744 26.255C20.0141 26.255 9.91126 19.5094 9.91126 15.0533C9.91013 14.4353 10.0362 13.8236 10.2818 13.2561L11.1957 11.0158C11.1549 11.1682 11.1383 11.326 11.1463 11.4836C11.1463 13.7485 20.1129 21.1835 32.1178 21.1835C35.2055 21.1835 39.6764 20.5434 39.6764 16.8751C39.6763 16.5945 39.6515 16.3144 39.6023 16.0381L40.1458 18.4015Z" fill="black"/>
</svg>
