<svg width="47" height="47" viewBox="0 0 47 47" fill="none" xmlns="http://www.w3.org/2000/svg">
<path d="M23.54 46.54C36.2646 46.54 46.58 36.2246 46.58 23.5C46.58 10.7754 36.2646 0.459999 23.54 0.459999C10.8154 0.459999 0.5 10.7754 0.5 23.5C0.5 36.2246 10.8154 46.54 23.54 46.54Z" fill="#F47421"/>
<path fill-rule="evenodd" clip-rule="evenodd" d="M23.54 14.5144C18.5774 14.5144 14.5544 18.5374 14.5544 23.5C14.5544 28.4626 18.5774 32.4856 23.54 32.4856C28.5026 32.4856 32.5256 28.4626 32.5256 23.5C32.5256 18.5374 28.5026 14.5144 23.54 14.5144ZM10.1768 23.5C10.1768 16.1197 16.1597 10.1368 23.54 10.1368C30.9203 10.1368 36.9032 16.1197 36.9032 23.5C36.9032 30.8803 30.9203 36.8632 23.54 36.8632C16.1597 36.8632 10.1768 30.8803 10.1768 23.5Z" fill="white"/>
<path d="M7.8728 27.8201C10.2587 27.8201 12.1929 25.8859 12.1929 23.5C12.1929 21.1141 10.2587 19.1799 7.8728 19.1799C5.4869 19.1799 3.55275 21.1141 3.55275 23.5C3.55275 25.8859 5.4869 27.8201 7.8728 27.8201Z" fill="#F47421"/>
<path fill-rule="evenodd" clip-rule="evenodd" d="M37.364 24.3289H32.244V22.6711H37.364V24.3289Z" fill="#F47421"/>
<path d="M7.8728 26.5758C9.57153 26.5758 10.9486 25.1987 10.9486 23.5C10.9486 21.8013 9.57153 20.4242 7.8728 20.4242C6.17407 20.4242 4.79699 21.8013 4.79699 23.5C4.79699 25.1987 6.17407 26.5758 7.8728 26.5758Z" fill="white"/>
<path d="M27.6323 7.77178C26.4394 9.83803 27.1473 12.4801 29.2136 13.6731C31.2798 14.866 33.9219 14.1581 35.1149 12.0918C36.3078 10.0256 35.5999 7.38348 33.5336 6.19053C31.4674 4.99758 28.8253 5.70553 27.6323 7.77178Z" fill="#F47421"/>
<path fill-rule="evenodd" clip-rule="evenodd" d="M15.9102 35.0575L18.4702 30.6234L19.9058 31.4523L17.3458 35.8864L15.9102 35.0575Z" fill="#F47421"/>
<path d="M28.7099 8.3939C27.8605 9.86504 28.3646 11.7462 29.8357 12.5955C31.3068 13.4449 33.188 12.9409 34.0373 11.4697C34.8867 9.99857 34.3826 8.11744 32.9115 7.26807C31.4404 6.41871 29.5592 6.92276 28.7099 8.3939Z" fill="white"/>
<path d="M35.1149 34.9082C33.9219 32.8419 31.2798 32.134 29.2136 33.3269C27.1473 34.5199 26.4394 37.162 27.6323 39.2282C28.8253 41.2945 31.4674 42.0024 33.5336 40.8095C35.5999 39.6165 36.3078 36.9744 35.1149 34.9082Z" fill="#F47421"/>
<path fill-rule="evenodd" clip-rule="evenodd" d="M17.3458 11.1136L19.9058 15.5477L18.4702 16.3766L15.9102 11.9425L17.3458 11.1136Z" fill="#F47421"/>
<path d="M34.0373 35.5303C33.188 34.0591 31.3068 33.5551 29.8357 34.4045C28.3646 35.2538 27.8605 37.135 28.7099 38.6061C29.5592 40.0772 31.4404 40.5813 32.9115 39.7319C34.3826 38.8826 34.8867 37.0014 34.0373 35.5303Z" fill="white"/>
</svg>
